<svg width="127" height="40" viewBox="0 0 127 40" fill="none" xmlns="http://www.w3.org/2000/svg">
<g clip-path="url(#clip0_1667_2170)">
<path d="M101.866 4.39896V35.4485H126.711V4.39896H101.866ZM126.438 35.1774H102.137V20.0601H126.438V35.1774ZM126.438 19.7855H102.137V4.66638H126.438V19.7855Z" fill="white"/>
<path d="M107.085 23.8955C107.083 23.7519 107.104 23.6089 107.148 23.472C107.184 23.3539 107.246 23.245 107.327 23.1525C107.413 23.0635 107.518 22.9948 107.634 22.9515C107.91 22.8582 108.209 22.8582 108.485 22.9515C108.604 22.9938 108.711 23.0626 108.799 23.1525C108.882 23.2446 108.943 23.3536 108.979 23.472C109.062 23.7469 109.062 24.0406 108.979 24.3155C108.943 24.4341 108.882 24.5433 108.799 24.635C108.713 24.7256 108.608 24.795 108.49 24.8378C108.216 24.9311 107.919 24.9311 107.645 24.8378C107.529 24.7945 107.424 24.7251 107.338 24.635C107.256 24.5424 107.195 24.4335 107.159 24.3155C107.112 24.1803 107.087 24.0386 107.085 23.8955V23.8955ZM107.624 23.8955C107.624 23.974 107.632 24.0522 107.649 24.1289C107.664 24.1996 107.691 24.2674 107.728 24.3299C107.762 24.3865 107.809 24.4339 107.866 24.4681C107.926 24.5048 107.996 24.5229 108.067 24.5201C108.138 24.5226 108.208 24.5045 108.27 24.4681C108.326 24.4338 108.373 24.3864 108.406 24.3299C108.443 24.2678 108.47 24.1998 108.485 24.1289C108.502 24.0522 108.51 23.974 108.51 23.8955C108.51 23.8147 108.502 23.7341 108.485 23.655C108.471 23.5845 108.444 23.5171 108.406 23.4558C108.372 23.3998 108.326 23.353 108.27 23.3194C108.208 23.2843 108.138 23.2669 108.067 23.2692C107.996 23.2667 107.927 23.2841 107.866 23.3194C107.809 23.3529 107.762 23.3997 107.728 23.4558C107.691 23.5175 107.664 23.5848 107.649 23.655C107.632 23.7341 107.623 23.8147 107.624 23.8955V23.8955Z" fill="white"/>
<path d="M109.466 22.9156H110.776V23.2854H109.989V23.7161H110.737V24.0858H109.983V24.8737H109.461L109.466 22.9156Z" fill="white"/>
<path d="M111.166 22.9156H112.476V23.2854H111.688V23.7161H112.442V24.0858H111.688V24.8737H111.166V22.9156Z" fill="white"/>
<path d="M112.905 22.9156H113.429V24.8737H112.907L112.905 22.9156Z" fill="white"/>
<path d="M115.583 24.8288L115.335 24.8827C115.225 24.9007 115.113 24.9091 115.002 24.9078C114.868 24.9072 114.734 24.8891 114.605 24.8539C114.476 24.8199 114.354 24.762 114.246 24.6834C114.136 24.6012 114.046 24.495 113.982 24.3729C113.91 24.227 113.875 24.0655 113.88 23.9027C113.876 23.7494 113.905 23.5971 113.964 23.4558C114.016 23.3323 114.096 23.2228 114.198 23.1363C114.303 23.0482 114.425 22.9828 114.557 22.9443C114.702 22.9015 114.852 22.8803 115.003 22.8815C115.102 22.8816 115.201 22.8918 115.298 22.912C115.393 22.9317 115.488 22.9551 115.583 22.9838L115.542 23.4074C115.463 23.3624 115.378 23.3274 115.291 23.3033C115.206 23.28 115.118 23.2685 115.03 23.2692C114.944 23.2677 114.859 23.2842 114.779 23.3176C114.706 23.3468 114.641 23.3915 114.587 23.4486C114.532 23.5063 114.49 23.5748 114.463 23.6496C114.434 23.7307 114.419 23.8165 114.42 23.9027C114.419 23.9912 114.435 24.0791 114.469 24.1612C114.499 24.2352 114.545 24.3019 114.603 24.3568C114.663 24.4108 114.733 24.4523 114.81 24.4788C114.895 24.5068 114.984 24.5207 115.073 24.5201C115.159 24.5204 115.245 24.5108 115.328 24.4914C115.408 24.4725 115.485 24.4486 115.562 24.4196L115.583 24.8288Z" fill="white"/>
<path d="M115.994 22.9156H116.516V24.8737H115.994V22.9156Z" fill="white"/>
<path d="M117.629 22.9156H118.275L119.029 24.8737H118.455L118.309 24.4556H117.574L117.419 24.8737H116.881L117.629 22.9156ZM117.949 23.3195L117.697 24.0858H118.187L117.949 23.3195Z" fill="white"/>
<path d="M119.368 22.9156H119.89V24.4861H120.698V24.8737H119.368V22.9156Z" fill="white"/>
<path d="M107.085 26.2378H107.607V27.8082H108.415V28.1959H107.085V26.2378Z" fill="white"/>
<path d="M108.81 26.2378H109.332V28.1959H108.81V26.2378Z" fill="white"/>
<path d="M111.495 28.1509C111.419 28.1689 111.339 28.1868 111.249 28.203C111.139 28.2226 111.027 28.2316 110.915 28.2299C110.78 28.2294 110.646 28.2113 110.517 28.1761C110.387 28.1385 110.265 28.0777 110.158 27.9966C110.047 27.9143 109.957 27.8082 109.894 27.6861C109.822 27.5402 109.786 27.3786 109.792 27.2159C109.787 27.0626 109.816 26.9102 109.876 26.769C109.927 26.6455 110.007 26.536 110.109 26.4495C110.214 26.3614 110.337 26.296 110.468 26.2575C110.614 26.2175 110.765 26.1993 110.917 26.2036C111.016 26.2037 111.114 26.2139 111.211 26.2341C111.306 26.2539 111.401 26.2772 111.498 26.3041L111.455 26.7277C111.376 26.6829 111.292 26.6486 111.204 26.6254C111.12 26.6021 111.033 26.5907 110.946 26.5913C110.859 26.5903 110.773 26.6062 110.692 26.6379C110.62 26.6688 110.555 26.714 110.5 26.7708C110.445 26.8282 110.403 26.8967 110.377 26.9718C110.347 27.0529 110.333 27.1386 110.334 27.2248C110.332 27.3134 110.349 27.4012 110.382 27.4833C110.413 27.5567 110.458 27.6228 110.517 27.6771C110.576 27.7323 110.646 27.7745 110.723 27.801C110.808 27.8289 110.897 27.8428 110.987 27.8422C111.073 27.8418 111.158 27.8321 111.242 27.8135C111.321 27.7949 111.399 27.7709 111.475 27.7417L111.495 28.1509Z" fill="white"/>
<path d="M111.859 26.2378H113.239V26.6075H112.381V27.0113H113.192V27.3828H112.381V27.819H113.279V28.1887H111.866L111.859 26.2378Z" fill="white"/>
<path d="M113.736 26.2378H114.4L115.063 27.5677V26.2378H115.538V28.1959H114.89L114.207 26.857L114.223 28.1959H113.744L113.736 26.2378Z" fill="white"/>
<path d="M116.055 27.713C116.131 27.7535 116.211 27.7848 116.294 27.8063C116.392 27.8307 116.493 27.8428 116.594 27.8422C116.634 27.845 116.675 27.845 116.716 27.8422C116.752 27.838 116.787 27.8283 116.82 27.8135C116.848 27.8016 116.873 27.7817 116.89 27.7561C116.908 27.7273 116.918 27.6935 116.917 27.6592C116.919 27.6317 116.913 27.6041 116.901 27.5793C116.889 27.5545 116.871 27.5331 116.848 27.5174C116.796 27.4825 116.738 27.4547 116.678 27.4348C116.61 27.4115 116.534 27.3882 116.454 27.3648C116.376 27.3422 116.301 27.3096 116.231 27.2679C116.159 27.2258 116.097 27.1674 116.052 27.0974C116.001 27.0111 115.977 26.912 115.982 26.812C115.978 26.7082 116.005 26.6057 116.061 26.5177C116.112 26.4429 116.181 26.3814 116.262 26.3382C116.347 26.2917 116.439 26.2595 116.534 26.2431C116.635 26.22 116.737 26.2068 116.84 26.2036C116.931 26.2037 117.023 26.2103 117.114 26.2234C117.192 26.2337 117.269 26.2518 117.344 26.2772L117.31 26.681C117.243 26.6484 117.171 26.6254 117.098 26.6128C117.025 26.5985 116.95 26.5912 116.875 26.5913H116.764C116.726 26.5944 116.688 26.6022 116.651 26.6146C116.617 26.6249 116.586 26.6434 116.561 26.6685C116.547 26.6846 116.537 26.7036 116.531 26.724C116.525 26.7445 116.524 26.766 116.527 26.7871C116.53 26.8082 116.537 26.8284 116.549 26.8463C116.56 26.8642 116.576 26.8795 116.594 26.891C116.65 26.9229 116.71 26.9471 116.773 26.9628L116.996 27.0274C117.075 27.0496 117.15 27.0828 117.22 27.1261C117.29 27.1723 117.348 27.2337 117.391 27.3056C117.44 27.3916 117.464 27.4901 117.459 27.5892C117.463 27.699 117.438 27.808 117.387 27.9051C117.34 27.9862 117.273 28.0542 117.193 28.1025C117.108 28.1527 117.014 28.1874 116.917 28.2048C116.811 28.225 116.704 28.2352 116.597 28.2353C116.499 28.2348 116.4 28.2276 116.303 28.2138C116.206 28.2007 116.11 28.1797 116.016 28.1509L116.055 27.713Z" fill="white"/>
<path d="M117.891 26.2378H119.271V26.6075H118.412V27.0113H119.223V27.3828H118.412V27.819H119.309V28.1887H117.898L117.891 26.2378Z" fill="white"/>
<path d="M120.28 27.8081H120.483C120.647 27.8198 120.809 27.7663 120.933 27.6591C120.989 27.6005 121.032 27.5307 121.06 27.4543C121.087 27.378 121.098 27.2967 121.091 27.2158C121.097 27.1349 121.086 27.0536 121.058 26.9773C121.031 26.9009 120.988 26.8312 120.931 26.7725C120.806 26.6678 120.646 26.6151 120.483 26.6254H120.28V27.8081ZM119.759 26.2377H120.477C120.634 26.2362 120.79 26.2512 120.944 26.2826C121.073 26.3087 121.196 26.362 121.303 26.4387C121.407 26.5152 121.489 26.618 121.54 26.7366C121.602 26.8861 121.631 27.047 121.626 27.2087C121.631 27.3674 121.601 27.5253 121.54 27.6717C121.485 27.7913 121.402 27.8955 121.298 27.975C121.188 28.0563 121.063 28.1138 120.93 28.1437C120.778 28.1792 120.624 28.1966 120.468 28.1958H119.75L119.759 26.2377Z" fill="white"/>
<path d="M107.085 29.5599H107.708C107.94 29.5425 108.173 29.597 108.373 29.7161C108.439 29.7766 108.491 29.85 108.527 29.9317C108.563 30.0134 108.581 30.1016 108.581 30.1908C108.581 30.28 108.563 30.3682 108.527 30.4499C108.491 30.5316 108.439 30.605 108.373 30.6655C108.208 30.786 108.005 30.845 107.801 30.8324H107.6V31.518H107.078L107.085 29.5599ZM107.607 30.4573H107.742C107.784 30.4578 107.826 30.4536 107.867 30.4447C107.904 30.4372 107.939 30.4219 107.97 30.3999C107.999 30.3773 108.023 30.3485 108.04 30.3155C108.057 30.2754 108.066 30.2319 108.065 30.1881C108.066 30.1448 108.057 30.1019 108.04 30.0625C108.023 30.03 107.999 30.0018 107.97 29.9799C107.939 29.9591 107.904 29.9445 107.867 29.9368C107.826 29.9279 107.784 29.9237 107.742 29.9243H107.607V30.4573Z" fill="white"/>
<path d="M108.953 29.5599H109.885C109.967 29.5592 110.049 29.5688 110.129 29.5886C110.201 29.6062 110.269 29.6372 110.33 29.6801C110.387 29.7193 110.434 29.7724 110.466 29.8345C110.501 29.9019 110.519 29.9774 110.516 30.0534C110.521 30.1683 110.488 30.2815 110.423 30.3765C110.352 30.4654 110.251 30.5259 110.139 30.547V30.547C110.177 30.5557 110.212 30.5743 110.24 30.6008C110.267 30.627 110.289 30.6581 110.305 30.6924C110.326 30.7326 110.343 30.7747 110.357 30.818C110.373 30.8647 110.393 30.9185 110.418 30.9795L110.608 31.518H110.069L109.958 31.159C109.931 31.0747 109.906 31.0047 109.883 30.9508C109.864 30.9045 109.838 30.861 109.807 30.8216C109.783 30.7915 109.751 30.7691 109.714 30.757C109.674 30.7432 109.632 30.7365 109.59 30.7373H109.481V31.5126H108.959L108.953 29.5599ZM109.475 30.3729H109.612H109.743C109.785 30.3701 109.827 30.361 109.867 30.346C109.902 30.3314 109.934 30.3079 109.958 30.2778C109.985 30.2401 109.997 30.1945 109.994 30.1486C109.996 30.1095 109.984 30.0711 109.962 30.0391C109.94 30.0098 109.911 29.9869 109.877 29.9727C109.839 29.957 109.798 29.9468 109.757 29.9422C109.709 29.9364 109.66 29.9334 109.612 29.9332H109.481L109.475 30.3729Z" fill="white"/>
<path d="M110.906 30.5379C110.904 30.3943 110.926 30.2513 110.969 30.1144C111.005 29.9967 111.066 29.8883 111.148 29.7967C111.234 29.7071 111.339 29.6383 111.455 29.5957C111.731 29.5024 112.03 29.5024 112.306 29.5957C112.422 29.6383 112.527 29.7071 112.613 29.7967C112.695 29.8883 112.756 29.9967 112.792 30.1144C112.876 30.3899 112.876 30.6842 112.792 30.9597C112.756 31.0775 112.694 31.1864 112.613 31.2792C112.527 31.3688 112.421 31.4376 112.304 31.4802C112.03 31.5735 111.733 31.5735 111.459 31.4802C111.343 31.4376 111.238 31.3688 111.152 31.2792C111.067 31.1876 111.002 31.0786 110.964 30.9597C110.922 30.8231 110.903 30.6807 110.906 30.5379ZM111.445 30.5379C111.445 30.617 111.453 30.6958 111.47 30.7731C111.484 30.8436 111.511 30.911 111.549 30.9723C111.582 31.0293 111.629 31.0774 111.685 31.1123C111.747 31.1479 111.817 31.1659 111.888 31.1643C111.958 31.1661 112.028 31.1481 112.089 31.1123C112.146 31.078 112.194 31.0298 112.227 30.9723C112.264 30.9106 112.291 30.8433 112.306 30.7731C112.34 30.6169 112.34 30.4554 112.306 30.2992C112.291 30.2288 112.265 30.1614 112.227 30.1C112.193 30.0439 112.145 29.9971 112.089 29.9636C112.028 29.9283 111.958 29.9109 111.888 29.9134C111.817 29.9111 111.747 29.9285 111.685 29.9636C111.629 29.9977 111.583 30.0444 111.549 30.1C111.51 30.161 111.484 30.2285 111.47 30.2992C111.453 30.3777 111.444 30.4577 111.445 30.5379V30.5379Z" fill="white"/>
<path d="M113.302 29.5598H114.02C114.177 29.5583 114.334 29.5733 114.488 29.6047C114.617 29.6304 114.74 29.683 114.847 29.759C114.951 29.837 115.033 29.9402 115.086 30.0587C115.146 30.2085 115.175 30.3693 115.17 30.5308C115.175 30.6889 115.146 30.8463 115.084 30.992C115.03 31.1124 114.947 31.2173 114.842 31.2971C114.735 31.3772 114.613 31.4346 114.483 31.4658C114.331 31.5012 114.175 31.5186 114.02 31.5179H113.302V29.5598ZM113.822 31.1302H114.025C114.189 31.1415 114.352 31.088 114.477 30.9813C114.579 30.856 114.635 30.6995 114.635 30.5379C114.635 30.3764 114.579 30.2198 114.477 30.0946C114.352 29.9891 114.192 29.9358 114.029 29.9457H113.826L113.822 31.1302Z" fill="white"/>
<path d="M117.313 30.7749C117.315 30.8934 117.294 31.0112 117.25 31.1213C117.211 31.2154 117.149 31.2985 117.071 31.3636C116.99 31.4283 116.897 31.4765 116.798 31.5054C116.684 31.5368 116.566 31.5519 116.448 31.5503C116.33 31.5517 116.213 31.5366 116.1 31.5054C116 31.4765 115.908 31.4283 115.827 31.3636C115.748 31.299 115.686 31.2158 115.647 31.1213C115.604 31.0112 115.582 30.8934 115.585 30.7749V29.5599H116.121V30.6906C116.121 30.7507 116.126 30.8107 116.136 30.8701C116.145 30.9235 116.163 30.9751 116.189 31.0226C116.214 31.0656 116.249 31.1015 116.292 31.1267C116.344 31.1515 116.4 31.1644 116.458 31.1644C116.515 31.1644 116.572 31.1515 116.624 31.1267C116.666 31.1015 116.702 31.0656 116.726 31.0226C116.752 30.9753 116.77 30.9236 116.778 30.8701C116.789 30.8109 116.795 30.7508 116.794 30.6906V29.5599H117.317L117.313 30.7749Z" fill="white"/>
<path d="M119.422 31.4731C119.347 31.491 119.264 31.509 119.174 31.5251C119.064 31.5441 118.952 31.5525 118.84 31.5502C118.707 31.5503 118.573 31.5328 118.444 31.4982C118.314 31.4614 118.192 31.4005 118.085 31.3187C117.974 31.2373 117.884 31.1317 117.821 31.01C117.749 30.864 117.714 30.7025 117.719 30.5398C117.715 30.3865 117.743 30.2342 117.803 30.0929C117.855 29.9692 117.935 29.8592 118.036 29.7716C118.142 29.6847 118.264 29.62 118.395 29.5814C118.54 29.5386 118.691 29.5174 118.842 29.5186C118.941 29.519 119.04 29.5286 119.137 29.5473C119.232 29.567 119.327 29.5922 119.422 29.6191L119.381 30.0426C119.301 29.9984 119.217 29.9635 119.129 29.9385C119.044 29.9167 118.957 29.9058 118.869 29.9062C118.783 29.9051 118.698 29.921 118.618 29.9529C118.545 29.9826 118.479 30.0279 118.426 30.0857C118.371 30.1428 118.329 30.2106 118.302 30.2849C118.273 30.3667 118.258 30.453 118.259 30.5398C118.258 30.6283 118.274 30.7162 118.307 30.7982C118.338 30.8723 118.385 30.9389 118.443 30.9934C118.502 31.0479 118.572 31.0891 118.648 31.1141C118.733 31.1435 118.822 31.1581 118.912 31.1572C118.998 31.1569 119.084 31.1466 119.167 31.1267C119.247 31.1087 119.325 31.0847 119.4 31.0549L119.422 31.4731Z" fill="white"/>
<path d="M120.136 29.9458H119.655V29.5599H121.147V29.9458H120.664V31.518H120.142L120.136 29.9458Z" fill="white"/>
<path fill-rule="evenodd" clip-rule="evenodd" d="M105.48 9.05823V14.6812H107.23V12.6496H108.49L108.937 11.4219H107.23V10.2841H109.35L109.797 9.05823H105.48Z" fill="white"/>
<path d="M112.081 9.05823H110.332V14.6812H112.081V9.05823Z" fill="white"/>
<path fill-rule="evenodd" clip-rule="evenodd" d="M113.286 9.05823V14.6812H115.037V12.6496H116.295L116.744 11.4219H115.037V10.2841H117.157L117.604 9.05823H113.286Z" fill="white"/>
<path fill-rule="evenodd" clip-rule="evenodd" d="M122.615 14.6812H120.847L120.619 13.9256H118.634L118.415 14.6812H116.692L118.74 9.05823H120.56L122.615 14.6812ZM120.33 12.8452L119.63 10.512L118.954 12.8452H120.33Z" fill="white"/>
<path d="M122.597 10.7452C122.484 10.7454 122.373 10.7228 122.269 10.6788C122.17 10.6353 122.079 10.5745 122.001 10.4994C121.926 10.4218 121.865 10.3312 121.822 10.2319C121.778 10.128 121.755 10.0163 121.755 9.90349C121.755 9.79068 121.778 9.679 121.822 9.57505C121.865 9.47581 121.926 9.38522 122.001 9.30763C122.079 9.23188 122.169 9.17104 122.269 9.12815C122.373 9.08432 122.484 9.06174 122.597 9.06174C122.71 9.06174 122.822 9.08432 122.926 9.12815C123.025 9.17017 123.116 9.23111 123.193 9.30763C123.269 9.38467 123.33 9.4754 123.372 9.57505C123.416 9.679 123.439 9.79068 123.439 9.90349C123.439 10.0163 123.416 10.128 123.372 10.2319C123.33 10.3316 123.269 10.4223 123.193 10.4994C123.116 10.5753 123.025 10.6362 122.926 10.6788C122.822 10.7228 122.71 10.7454 122.597 10.7452V10.7452ZM122.597 10.5819C122.682 10.5828 122.765 10.5662 122.843 10.5331C122.921 10.5001 122.991 10.4513 123.049 10.3899C123.108 10.327 123.154 10.254 123.186 10.1745C123.251 10.0009 123.251 9.80964 123.186 9.63607C123.154 9.55654 123.108 9.48354 123.049 9.4207C122.992 9.36064 122.923 9.31247 122.847 9.27891C122.768 9.24579 122.683 9.22873 122.598 9.22873C122.513 9.22873 122.428 9.24579 122.349 9.27891C122.273 9.312 122.204 9.36024 122.147 9.4207C122.088 9.48354 122.042 9.55654 122.01 9.63607C121.945 9.80964 121.945 10.0009 122.01 10.1745C122.042 10.254 122.088 10.327 122.147 10.3899C122.204 10.4503 122.273 10.4986 122.349 10.5317C122.427 10.5673 122.512 10.5868 122.597 10.5891V10.5819ZM122.272 9.4207H122.631C122.724 9.41481 122.816 9.43736 122.895 9.48531C122.927 9.51097 122.951 9.54408 122.967 9.58168C122.983 9.61927 122.989 9.66016 122.985 9.70068C122.987 9.73357 122.982 9.76652 122.971 9.79742C122.959 9.82833 122.941 9.85651 122.918 9.88016C122.868 9.92291 122.805 9.94811 122.739 9.95195L122.997 10.3701H122.818L122.57 9.95913H122.463V10.3701H122.283L122.272 9.4207ZM122.452 9.82991H122.61C122.634 9.83175 122.659 9.83175 122.683 9.82991C122.705 9.82715 122.726 9.8211 122.746 9.81196C122.764 9.80189 122.779 9.78697 122.789 9.76888C122.801 9.74499 122.807 9.7184 122.805 9.69171C122.807 9.66767 122.8 9.64385 122.787 9.62351C122.776 9.60678 122.761 9.5932 122.743 9.58402C122.723 9.5751 122.701 9.56906 122.68 9.56608C122.657 9.56423 122.634 9.56423 122.611 9.56608H122.452V9.82991Z" fill="white"/>
<path d="M19.9989 8.05409e-08C16.0431 9.64678e-08 12.176 1.17308 8.88686 3.37088C5.59769 5.56869 3.03413 8.69251 1.52036 12.3473C0.00659404 16.0021 -0.389386 20.0237 0.382499 23.9035C1.15438 27.7834 3.05946 31.3472 5.85682 34.1443C8.65417 36.9414 12.2182 38.8462 16.0981 39.6177C19.978 40.3892 23.9996 39.9929 27.6542 38.4788C31.3089 36.9647 34.4324 34.4009 36.63 31.1115C38.8275 27.8221 40.0002 23.955 39.9998 19.9991C39.9998 17.3726 39.4825 14.7719 38.4773 12.3454C37.4722 9.91885 35.9989 7.71408 34.1416 5.85697C32.2843 3.99986 30.0794 2.52677 27.6528 1.52183C25.2262 0.516883 22.6254 -0.000235625 19.9989 8.05409e-08" fill="white"/>
<path d="M33.153 23.2188H33.6627V23.3086H33.4599V23.7411H33.3576V23.3086H33.153V23.2188ZM9.29874 25.229H8.14649C7.88805 25.229 7.76062 25.0854 7.76062 24.8036V24.3478C7.75424 24.2317 7.79208 24.1176 7.86651 24.0283C7.89993 23.9866 7.94268 23.9533 7.99132 23.9312C8.03995 23.9091 8.0931 23.8987 8.14649 23.9009H9.04388C9.13971 23.8949 9.23458 23.9229 9.31174 23.9801C9.38891 24.0372 9.44342 24.1197 9.46565 24.2132L9.58949 24.6529H10.4187V24.1683C10.4235 24.0188 10.3971 23.8699 10.3411 23.7311C10.2852 23.5924 10.201 23.4668 10.0938 23.3624C9.98828 23.2581 9.86293 23.1759 9.72515 23.1207C9.58737 23.0656 9.43995 23.0385 9.29156 23.0412H7.95984C7.65756 23.0421 7.36796 23.1627 7.15438 23.3767C6.9408 23.5906 6.82063 23.8804 6.82016 24.1826V24.9616C6.81873 25.1127 6.84739 25.2627 6.90447 25.4027C6.96155 25.5427 7.04592 25.6699 7.15265 25.777C7.25939 25.884 7.38636 25.9688 7.52617 26.0263C7.66598 26.0838 7.81584 26.113 7.96702 26.112H9.11926C9.37412 26.112 9.50334 26.2592 9.50334 26.5481V27.1404C9.50668 27.2547 9.46984 27.3664 9.39924 27.4563C9.36554 27.4977 9.32274 27.5307 9.27417 27.5528C9.2256 27.5749 9.17259 27.5855 9.11926 27.5837H8.20393C8.10665 27.5957 8.00839 27.5713 7.92794 27.5154C7.84748 27.4594 7.79047 27.3758 7.7678 27.2804L7.64575 26.7833H6.82016V27.3217C6.81648 27.471 6.84315 27.6196 6.89855 27.7583C6.95396 27.897 7.03695 28.0231 7.14249 28.1288C7.24804 28.2345 7.37395 28.3177 7.51259 28.3733C7.65123 28.4289 7.79972 28.4558 7.94907 28.4524H9.30591C9.45664 28.4526 9.60592 28.423 9.7451 28.3651C9.88429 28.3073 10.0106 28.2224 10.1168 28.1154C10.2229 28.0084 10.3068 27.8814 10.3636 27.7418C10.4203 27.6022 10.4488 27.4527 10.4474 27.3019V26.383C10.4491 26.2327 10.4202 26.0836 10.3625 25.9447C10.3048 25.8059 10.2195 25.6802 10.1118 25.5754C10.0082 25.4661 9.88312 25.3794 9.74445 25.3207C9.60578 25.262 9.45648 25.2326 9.30591 25.2344L9.29874 25.229ZM14.8266 23.384C14.9343 23.4873 15.0197 23.6117 15.0774 23.7494C15.1352 23.8871 15.164 24.0351 15.1622 24.1844V25.3062C15.1648 25.4572 15.1363 25.607 15.0786 25.7466C15.0208 25.8861 14.9351 26.0123 14.8266 26.1174C14.7193 26.2279 14.5906 26.3155 14.4483 26.3747C14.3061 26.434 14.1533 26.4637 13.9992 26.462H12.5132V28.4362H11.5583V23.034H13.9992C14.1514 23.0318 14.3024 23.0605 14.4431 23.1185C14.5838 23.1766 14.7113 23.2626 14.8176 23.3714L14.8266 23.384ZM14.1985 24.3496C14.2025 24.2338 14.1635 24.1206 14.089 24.0319C14.0557 23.9915 14.0137 23.9591 13.9662 23.9374C13.9186 23.9156 13.8667 23.905 13.8144 23.9062H12.5132V25.5826H13.8198C13.8719 25.5828 13.9235 25.5717 13.9709 25.55C14.0183 25.5283 14.0605 25.4966 14.0944 25.4569C14.169 25.3676 14.208 25.2538 14.2038 25.1375L14.1985 24.3496ZM23.7017 26.2053L24.6494 28.4362H23.6371L22.7577 26.322H21.8603V28.4362H20.9037V23.034H23.2925C23.5953 23.034 23.8859 23.1535 24.101 23.3666C24.3161 23.5797 24.4384 23.8691 24.4412 24.1719V25.1267C24.4441 25.3635 24.3739 25.5954 24.2402 25.7908C24.1056 25.9777 23.9234 26.1252 23.7125 26.2179L23.7017 26.2053ZM23.4828 24.3621C23.4882 24.2473 23.4518 24.1345 23.3805 24.0444C23.3483 24.0038 23.307 23.9712 23.2599 23.9494C23.2128 23.9276 23.1613 23.9171 23.1095 23.9188H21.8531V25.4641H23.1095C23.1606 25.4658 23.2115 25.4561 23.2584 25.4356C23.3053 25.4151 23.347 25.3844 23.3805 25.3457C23.4518 25.2556 23.4882 25.1427 23.4828 25.028V24.3621ZM25.0442 23.9188H26.4154V28.4488H27.3721V23.9134H28.7594V23.0412H25.0442V23.9188ZM31.9379 25.2344H30.7875C30.5326 25.2344 30.4034 25.0908 30.4034 24.809V24.3531C30.3989 24.2376 30.4358 24.1243 30.5075 24.0337C30.5412 23.9923 30.584 23.9593 30.6326 23.9372C30.6812 23.9151 30.7342 23.9045 30.7875 23.9062H31.6849C31.7807 23.9003 31.8756 23.9283 31.9527 23.9854C32.0299 24.0426 32.0844 24.1251 32.1067 24.2185L32.2323 24.6583H33.0615V24.1737C33.0652 24.0241 33.0381 23.8754 32.9819 23.7368C32.9257 23.5982 32.8416 23.4726 32.7348 23.3678C32.6289 23.2629 32.503 23.1805 32.3646 23.1253C32.2261 23.0701 32.078 23.0433 31.929 23.0466H30.5937C30.2905 23.0475 30 23.1678 29.785 23.3815C29.57 23.5951 29.4478 23.8849 29.445 24.188V24.967C29.4432 25.1185 29.4721 25.2689 29.5301 25.409C29.5881 25.549 29.674 25.6759 29.7824 25.7818C29.8874 25.8904 30.0136 25.9763 30.1531 26.034C30.2927 26.0918 30.4426 26.1201 30.5937 26.1174H31.7459C32.0026 26.1174 32.13 26.2646 32.13 26.5535V27.1458C32.1338 27.2598 32.0976 27.3716 32.0277 27.4617C31.9932 27.5026 31.95 27.5352 31.9012 27.5573C31.8525 27.5793 31.7994 27.5902 31.7459 27.5891H30.8306C30.7335 27.5985 30.6364 27.5721 30.5574 27.5149C30.4784 27.4578 30.423 27.3737 30.4016 27.2786L30.2778 26.7815H29.445V27.3199C29.4418 27.4694 29.4689 27.618 29.5248 27.7568C29.5806 27.8955 29.6639 28.0215 29.7697 28.1272C29.8755 28.2328 30.0017 28.316 30.1405 28.3715C30.2793 28.4271 30.428 28.454 30.5775 28.4506H31.929C32.0809 28.4529 32.2317 28.4241 32.3721 28.3661C32.5125 28.3081 32.6396 28.222 32.7456 28.1132C32.8539 28.0078 32.9395 27.8812 32.9969 27.7413C33.0543 27.6015 33.0824 27.4513 33.0794 27.3002V26.383C33.0739 26.0798 32.9508 25.7906 32.7362 25.5763C32.5216 25.362 32.2322 25.2394 31.929 25.2344H31.9379ZM34.2801 23.2188L34.0737 23.5347L33.8691 23.2188H33.7812V23.7411H33.8691V23.4199C33.8691 23.4001 33.8583 23.384 33.8583 23.3624L33.8889 23.4145L34.0683 23.6765H34.0845L34.2514 23.4199C34.2619 23.4017 34.2703 23.3825 34.2765 23.3624C34.275 23.3815 34.275 23.4007 34.2765 23.4199V23.7411H34.3716V23.2188H34.2801ZM19.3835 23.375C19.4931 23.4779 19.5798 23.6026 19.6382 23.7411C19.6967 23.8796 19.7254 24.0288 19.7227 24.1791V27.2804C19.7273 27.4336 19.6994 27.586 19.641 27.7277C19.5825 27.8693 19.4948 27.997 19.3835 28.1024C19.2783 28.2113 19.1519 28.2975 19.0121 28.3555C18.8722 28.4136 18.7219 28.4423 18.5705 28.4398H17.289C17.1368 28.4403 16.986 28.4106 16.8453 28.3525C16.7046 28.2943 16.5769 28.2089 16.4694 28.1011C16.3619 27.9933 16.2769 27.8653 16.2192 27.7244C16.1615 27.5835 16.1323 27.4326 16.1332 27.2804V24.1755C16.1315 24.026 16.1606 23.8779 16.2187 23.7401C16.2767 23.6024 16.3625 23.4781 16.4706 23.375C16.5765 23.2655 16.7038 23.179 16.8447 23.1209C16.9855 23.0629 17.1368 23.0345 17.289 23.0376H18.5795C18.7306 23.0349 18.8807 23.0631 19.0205 23.1205C19.1603 23.1779 19.2869 23.2633 19.3925 23.3714L19.3835 23.375ZM18.7787 24.3531C18.7837 24.2369 18.7438 24.1232 18.6674 24.0355C18.6346 23.9951 18.5929 23.9628 18.5456 23.941C18.4983 23.9192 18.4467 23.9086 18.3946 23.9098H17.4793C17.4256 23.9082 17.3723 23.9187 17.3232 23.9404C17.2742 23.9622 17.2306 23.9947 17.1957 24.0355C17.1252 24.126 17.089 24.2385 17.0934 24.3531V27.1225C17.0895 27.2359 17.1257 27.3471 17.1957 27.4366C17.2291 27.4795 17.2723 27.5139 17.3215 27.537C17.3708 27.5601 17.4249 27.5712 17.4793 27.5694H18.3946C18.4473 27.5701 18.4994 27.5584 18.5468 27.5354C18.5942 27.5123 18.6355 27.4785 18.6674 27.4366C18.7431 27.3498 18.7829 27.2375 18.7787 27.1225V24.3531ZM22.8062 9.25196H12.5257L10.9481 11.7557H21.225L22.8062 9.25196ZM26.7008 16.7469H25.1591L23.5779 19.2596H28.2802L29.8614 21.7579H32.8622L24.9078 9.1694L18.5185 19.2578H11.5278L13.1324 16.7559H17.4739L19.0569 14.254H9.36514L7.79113 16.7559H10.1243L6.94938 21.7579H19.9686L24.9078 13.913L26.7008 16.7469Z" fill="black"/>
<path d="M46.2298 4.39896H60.5575L59.8306 8.60051H50.8083L50.1891 12.129H57.4597L56.7328 16.3306H49.4353L48.1682 23.6012H42.8359L46.2298 4.39896Z" fill="white"/>
<path d="M62.4237 4.39896H67.729L64.3351 23.6012H59.0298L62.4237 4.39896Z" fill="white"/>
<path d="M69.5887 4.39896H83.9164L83.1877 8.60051H74.1672L73.5462 12.129H80.8186L80.0917 16.3306H72.7924L71.5271 23.6012H66.1948L69.5887 4.39896Z" fill="white"/>
<path d="M88.3637 4.37198H94.3151L97.4129 23.6011H92.1345L91.7127 20.2341H85.0505L83.4352 23.6011H78.3184L88.3637 4.37198ZM91.1904 16.2175L90.302 9.29503H90.1943L86.9638 16.2175H91.1904Z" fill="white"/>
<path d="M42.8359 24.7767H45.6681L48.0874 30.7802H48.1162L50.4763 24.7767H53.2941V35.2941H51.126V28.4345H51.0955L48.913 33.9803H47.2152L45.0184 28.4632H44.9897V35.2941H42.8359V24.7767Z" fill="white"/>
<path d="M55.2554 31.7243V28.5368C55.2554 25.9541 57.3947 24.5973 59.5628 24.5973C61.8781 24.5973 63.9582 25.9685 63.9582 28.4919V31.5304C63.9582 34.1562 61.7758 35.4682 59.6364 35.4682C57.3212 35.4682 55.2554 34.2585 55.2554 31.7225V31.7243ZM61.6717 31.6345V28.3896C61.6717 27.2104 60.6828 26.5464 59.5772 26.5464C58.6044 26.5464 57.5419 27.0633 57.5419 28.4345V31.6507C57.5419 32.8442 58.486 33.5226 59.6364 33.5226C60.5948 33.5226 61.6717 32.9842 61.6717 31.6363" fill="white"/>
<path d="M65.9199 24.7767H70.8609C72.9124 24.7767 74.0466 25.7639 74.0466 27.4599C74.0664 27.957 73.9282 28.4476 73.6518 28.8612C73.3755 29.2749 72.9753 29.5905 72.5085 29.7626V29.7931C73.7038 30.1036 74.323 31.1356 74.323 32.286C74.323 34.1293 72.8765 35.2959 71.0476 35.2959H65.9146L65.9199 24.7767ZM70.3745 29.0249C71.2899 29.0249 71.7906 28.5386 71.7906 27.7866C71.7906 27.004 71.2163 26.62 70.3153 26.62H68.2208V29.0249H70.3745ZM70.493 33.4203C71.437 33.4203 72.0114 32.9196 72.0114 32.0922C72.0114 31.2648 71.4729 30.8359 70.493 30.8359H68.2208V33.4167L70.493 33.4203Z" fill="white"/>
<path d="M78.5015 24.7767H76.2168V35.2941H78.5015V24.7767Z" fill="white"/>
<path d="M80.5386 24.7767H82.8251V33.3611H87.8846V35.2941H80.5386V24.7767Z" fill="white"/>
<path d="M89.8462 24.7767H97.3681V26.7079H92.1327V28.9944H96.6609V30.9274H92.1327V33.3611H97.4129V35.2941H89.8462V24.7767Z" fill="white"/>
</g>
<defs>
<clipPath id="clip0_1667_2170">
<rect width="126.709" height="40" fill="white"/>
</clipPath>
</defs>
</svg>
